<svg version="1.0" xmlns="http://www.w3.org/2000/svg"
 width="50pt" height="50pt" viewBox="0 0 180.000000 180.000000"
 preserveAspectRatio="xMidYMid meet" style="display:inline-block;text-align:center">

<g transform="translate(0.000000,180.000000) scale(0.100000,-0.100000)"
fill="#9E062D" stroke="none">
<path d="M753 1622 l-133 -77 0 -67 0 -67 87 50 c49 28 96 55 105 60 17 9 18
-23 18 -626 l0 -636 -50 28 -50 28 0 443 0 442 -55 0 -55 0 0 -405 c0 -223 -3
-405 -7 -405 -5 0 -27 10 -50 22 l-43 23 0 308 0 308 -57 -3 -58 -3 -5 -267
-5 -267 -40 22 -40 23 0 339 0 339 103 59 102 59 0 64 c0 35 -3 64 -6 64 -4 0
-78 -41 -165 -92 l-159 -92 0 -401 0 -401 342 -198 c189 -110 348 -199 353
-199 6 0 164 89 353 199 l342 199 0 400 0 400 -159 93 c-87 50 -161 92 -165
92 -3 0 -6 -29 -6 -64 l0 -63 103 -60 102 -59 0 -339 0 -340 -42 -23 -43 -23
0 270 0 271 -60 0 -60 0 0 -307 0 -308 -40 -22 c-21 -13 -41 -23 -44 -23 -4 0
-6 182 -6 405 l0 405 -60 0 -60 0 0 -443 0 -442 -46 -28 c-26 -15 -48 -26 -50
-24 -2 2 -3 288 -2 635 l3 632 103 -60 c57 -33 105 -60 108 -60 2 0 4 29 4 65
l0 64 -92 54 c-51 30 -113 66 -138 80 l-45 26 -132 -77z"/>
</g></svg>
